Coordinates
version=1
nRows=13
nColumns=27
inDegrees=yes

Units are S.I. units (second, meters, Newtons, ...)
If the header above contains a line with 'inDegrees', this indicates whether rotational values are in degrees (yes) or radians (no).

endheader
time	pelvis_rotation	pelvis_tilt	pelvis_list	pelvis_tx	pelvis_ty	pelvis_tz	hip_flexion_r	hip_adduction_r	hip_rotation_r	knee_angle_r	knee_rotation_r	knee_adduction_r	knee_angle_r_beta	ankle_angle_r	subtalar_angle_r	mtp_angle_r	hip_flexion_l	hip_adduction_l	hip_rotation_l	knee_angle_l	knee_rotation_l	knee_adduction_l	knee_angle_l_beta	ankle_angle_l	subtalar_angle_l	mtp_angle_l
      4.26000000	     15.25282154	    -43.13119316	      6.70943996	     -0.08821062	      0.56527089	     -1.18036467	    124.47117017	    -48.06586979	     12.81244945	     91.94045485	      0.00000000	      9.48271410	      1.60466365	      9.51699829	      0.00000000	      0.00000000	    119.77678317	    -21.81852050	      5.31171406	     83.90374462	      0.00000000	     -9.88296354	      1.46439660	      3.80334909	      0.00000000	      0.00000000
      4.26500000	     14.41569688	    -43.18524383	      6.63282271	     -0.08909463	      0.56672798	     -1.18016377	    124.22819562	    -46.98642536	     12.76471215	     91.62623849	      0.00000000	      9.07156975	      1.59917954	      9.35302794	      0.00000000	      0.00000000	    119.49220917	    -22.63429972	      5.04500900	     83.65143480	      0.00000000	     -9.77962414	      1.45999296	      3.69342532	      0.00000000	      0.00000000
      4.27000000	     15.23808354	    -43.17959562	      6.73768248	     -0.08919632	      0.56780501	     -1.18077021	    124.07394387	    -48.03909337	     12.40878596	     91.45019556	      0.00000000	      9.45274066	      1.59610701	      9.36390368	      0.00000000	      0.00000000	    119.44868575	    -21.68836422	      5.14667004	     83.45352417	      0.00000000	     -9.88070863	      1.45653877	      3.69778889	      0.00000000	      0.00000000
      4.27500000	     15.21154887	    -43.19863833	      6.72783482	     -0.08967415	      0.56907436	     -1.18094756	    123.84329176	    -48.01963332	     12.17492225	     91.20432965	      0.00000000	      9.43686754	      1.59181584	      9.29299472	      0.00000000	      0.00000000	    119.28731494	    -21.63760647	      5.07921491	     83.22912373	      0.00000000	     -9.87970294	      1.45262224	      3.64163045	      0.00000000	      0.00000000
      4.28000000	     15.24006309	    -43.24509696	      6.76894311	     -0.09018413	      0.57026917	     -1.18114947	    123.70538495	    -48.01808093	     12.01554178	     90.96973847	      0.00000000	      9.41971841	      1.58772146	      9.21979957	      0.00000000	      0.00000000	    119.15182984	    -21.54902812	      4.99187421	     83.00723583	      0.00000000	     -9.87834493	      1.44874957	      3.58797375	      0.00000000	      0.00000000
      4.28500000	     15.21173985	    -43.26181159	      6.75811820	     -0.09064152	      0.57148617	     -1.18131713	    123.48139202	    -47.99388031	     11.79600907	     90.73167011	      0.00000000	      9.40326306	      1.58356638	      9.14624226	      0.00000000	      0.00000000	    118.99224269	    -21.50423518	      4.92553006	     82.79150022	      0.00000000	     -9.87747026	      1.44498427	      3.55952075	      0.00000000	      0.00000000
      4.29000000	     14.47264051	    -43.25517944	      6.64036218	     -0.09143688	      0.57281973	     -1.18107845	    123.15528507	    -47.04163775	     11.73060321	     90.43316105	      0.00000000	      8.96211462	      1.57835641	      9.00753941	      0.00000000	      0.00000000	    118.69578233	    -22.19125338	      4.72936794	     82.54323845	      0.00000000	     -9.76916507	      1.44065129	      3.43304765	      0.00000000	      0.00000000
      4.29500000	     15.21052618	    -43.36456866	      6.80520468	     -0.09168522	      0.57381780	     -1.18161021	    123.18026336	    -47.91759165	     11.45160350	     90.26952320	      0.00000000	      9.36829930	      1.57550039	      9.03025844	      0.00000000	      0.00000000	    118.75472176	    -21.39262933	      4.76626084	     82.35084423	      0.00000000	     -9.87501729	      1.43729337	      3.39517152	      0.00000000	      0.00000000
      4.30000000	     15.24679139	    -43.33957740	      6.79752751	     -0.09206716	      0.57498753	     -1.18175005	    122.91451199	    -47.96890672	     11.22271291	     90.04133820	      0.00000000	      9.35221227	      1.57151781	      8.96971444	      0.00000000	      0.00000000	    118.56627130	    -21.28534539	      4.71804084	     82.13236166	      0.00000000	     -9.87384668	      1.43348013	      3.35313128	      0.00000000	      0.00000000
      4.30500000	     14.42623277	    -43.35382112	      6.68488234	     -0.09284364	      0.57627171	     -1.18142856	    122.65130254	    -46.90696966	     11.21877969	     89.75736491	      0.00000000	      8.87966710	      1.56656155	      8.79237079	      0.00000000	      0.00000000	    118.27466638	    -22.08674578	      4.47373187	     81.89693790	      0.00000000	     -9.76306347	      1.42937121	      3.25480747	      0.00000000	      0.00000000
      4.31000000	     15.26203863	    -43.34198815	      6.79554064	     -0.09290620	      0.57722872	     -1.18195653	    122.47461836	    -47.96013907	     10.82935034	     89.60930325	      0.00000000	      9.31814436	      1.56397738	      8.85655537	      0.00000000	      0.00000000	    118.24916728	    -21.15067636	      4.59900603	     81.70471295	      0.00000000	     -9.87197610	      1.42601626	      3.23311070	      0.00000000	      0.00000000
      4.31500000	     14.49726309	    -43.39857433	      6.71467088	     -0.09369145	      0.57844020	     -1.18162649	    122.29711987	    -46.93067508	     10.87308949	     89.33522931	      0.00000000	      8.84273972	      1.55919389	      8.68367760	      0.00000000	      0.00000000	    118.01041466	    -21.91104949	      4.35121650	     81.47820814	      0.00000000	     -9.75950548	      1.42206300	      3.14646433	      0.00000000	      0.00000000
      4.32000000	     15.30464904	    -43.35008539	      6.82480699	     -0.09372907	      0.57936481	     -1.18213157	    122.08584781	    -47.94981377	     10.49397808	     89.19355884	      0.00000000	      9.28228503	      1.55672127	      8.75515059	      0.00000000	      0.00000000	    117.94312869	    -21.00925500	      4.46538939	     81.28767799	      0.00000000	     -9.86989092	      1.41873762	      3.11610597	      0.00000000	      0.00000000
